<svg xmlns="http://www.w3.org/2000/svg" version="1.1" xmlns:xlink="http://www.w3.org/1999/xlink" xmlns:svgjs="http://svgjs.dev/svgjs" width="1000" height="623" viewBox="0 0 1000 623"><g transform="matrix(1,0,0,1,-0.6060606060606233,0.2522267206477409)"><svg viewBox="0 0 396 247" data-background-color="#ffffff" preserveAspectRatio="xMidYMid meet" height="623" width="1000" xmlns="http://www.w3.org/2000/svg" xmlns:xlink="http://www.w3.org/1999/xlink"><g id="tight-bounds" transform="matrix(1,0,0,1,0.2400000000000091,-0.09999999999999432)"><svg viewBox="0 0 395.52 247.2" height="247.2" width="395.52"><g><svg></svg></g><g><svg viewBox="0 0 395.52 247.2" height="247.2" width="395.52"><g transform="matrix(1,0,0,1,75.54432,94.3617990430622)"><svg viewBox="0 0 244.43135999999998 58.476401913875584" height="58.476401913875584" width="244.43135999999998"><g><svg viewBox="0 0 244.43135999999998 58.476401913875584" height="58.476401913875584" width="244.43135999999998"><g><svg viewBox="0 0 244.43135999999998 58.476401913875584" height="58.476401913875584" width="244.43135999999998"><g><svg viewBox="0 0 244.43135999999998 58.476401913875584" height="58.476401913875584" width="244.43135999999998"><g id="textblocktransform"><svg viewBox="0 0 244.43135999999998 58.476401913875584" height="58.476401913875584" width="244.43135999999998" id="textblock"><g><svg viewBox="0 0 244.43135999999998 58.476401913875584" height="58.476401913875584" width="244.43135999999998"><g transform="matrix(1,0,0,1,0,0)"><svg width="244.43135999999998" viewBox="3.1 -35 146.28 35" height="58.476401913875584" data-palette-color="#ffa458"><path d="M21.7 0L3.1 0 3.1-35 21.7-35 21.7-30.4 7.75-30.4 7.75-21.7 17.05-21.7 16-17.05 7.75-17.05 7.75-4.65 21.7-4.65 21.7 0ZM32.85 0L28.15 0 28.15-25 48-25Q49.5-25 50.55-23.93 51.6-22.85 51.6-21.35L51.6-21.35 51.6 0 46.95 0 46.95-18.5Q46.95-19.25 46.4-19.78 45.85-20.3 45.1-20.3L45.1-20.3 42.25-20.3 42.25 0 37.55 0 37.55-18.5Q37.55-19.25 37-19.78 36.45-20.3 35.7-20.3L35.7-20.3 32.85-20.3 32.85 0ZM68.4 0L57.95 0Q56.45 0 55.37-1.05 54.3-2.1 54.3-3.65L54.3-3.65 54.3-11.2Q54.3-12.7 55.37-13.78 56.45-14.85 57.95-14.85L57.95-14.85 61.84-14.85Q62.65-14.85 63.17-15.38 63.7-15.9 63.7-16.65L63.7-16.65 63.7-18.5Q63.7-19.25 63.17-19.78 62.65-20.3 61.84-20.3L61.84-20.3 56.45-20.3 57.5-25 64.75-25Q66.25-25 67.32-23.93 68.4-22.85 68.4-21.35L68.4-21.35 68.4 0ZM60.8-4.7L60.8-4.7 63.7-4.7 63.7-10.15 60.8-10.15Q60.05-10.15 59.52-9.63 59-9.1 59-8.35L59-8.35 59-6.5Q59-5.75 59.52-5.23 60.05-4.7 60.8-4.7ZM81.84 0L74.99 0Q73.49 0 72.44-1.07 71.39-2.15 71.39-3.65L71.39-3.65 71.39-7.8 76.04-7.8 76.04-6.5Q76.04-5.75 76.59-5.23 77.14-4.7 77.89-4.7L77.89-4.7 78.94-4.7Q79.69-4.7 80.22-5.23 80.74-5.75 80.74-6.5L80.74-6.5 80.74-8.35Q80.74-9.1 80.22-9.63 79.69-10.15 78.94-10.15L78.94-10.15 74.99-10.15Q73.49-10.15 72.44-11.23 71.39-12.3 71.39-13.8L71.39-13.8 71.39-21.35Q71.39-22.85 72.44-23.93 73.49-25 74.99-25L74.99-25 81.84-25Q83.34-25 84.39-23.93 85.44-22.85 85.44-21.35L85.44-21.35 85.44-17.2 80.74-17.2 80.74-18.5Q80.74-19.25 80.22-19.78 79.69-20.3 78.94-20.3L78.94-20.3 77.89-20.3Q77.14-20.3 76.59-19.78 76.04-19.25 76.04-18.5L76.04-18.5 76.04-16.65Q76.04-15.9 76.59-15.38 77.14-14.85 77.89-14.85L77.89-14.85 81.84-14.85Q83.34-14.85 84.39-13.78 85.44-12.7 85.44-11.2L85.44-11.2 85.44-3.45Q85.39-2.05 84.34-1.03 83.29 0 81.84 0L81.84 0ZM112.54 0L97.54 0 97.54-35 112.54-35Q113.99-35 115.04-33.95 116.09-32.9 116.09-31.4L116.09-31.4 116.09-3.6Q116.09-2.1 115.04-1.05 113.99 0 112.54 0L112.54 0ZM102.19-30.35L102.19-4.65 109.69-4.65Q110.39-4.65 110.94-5.18 111.49-5.7 111.49-6.45L111.49-6.45 111.49-28.55Q111.49-29.3 110.94-29.83 110.39-30.35 109.69-30.35L109.69-30.35 102.19-30.35ZM133.79 0L123.34 0Q121.84 0 120.76-1.07 119.69-2.15 119.69-3.65L119.69-3.65 119.69-21.4Q119.69-22.9 120.76-23.95 121.84-25 123.34-25L123.34-25 130.14-25Q131.69-25 132.74-23.95 133.79-22.9 133.79-21.4L133.79-21.4 133.79-13.8Q133.79-12.3 132.74-11.23 131.69-10.15 130.14-10.15L130.14-10.15 124.39-10.15 124.39-6.5Q124.39-5.75 124.91-5.23 125.44-4.7 126.24-4.7L126.24-4.7 132.74-4.7 133.79 0ZM124.39-18.5L124.39-14.85 127.29-14.85Q128.04-14.85 128.56-15.38 129.09-15.9 129.09-16.65L129.09-16.65 129.09-18.5Q129.09-19.25 128.56-19.78 128.04-20.3 127.29-20.3L127.29-20.3 126.24-20.3Q125.44-20.3 124.91-19.78 124.39-19.25 124.39-18.5L124.39-18.5ZM144.68 0L139.98 0 135.28-25 139.98-25 142.33-12.5 144.68-25 149.38-25 144.68 0Z" opacity="1" transform="matrix(1,0,0,1,0,0)" fill="#ffa458" class="wordmark-text-0" data-fill-palette-color="primary" id="text-0"></path></svg></g></svg></g></svg></g></svg></g></svg></g></svg></g></svg></g><g><path d="M0 123.6c0-68.262 55.338-123.6 123.6-123.6 55.689 0 102.775 36.829 118.232 87.459l-2.76 0c-15.368-49.153-61.254-84.823-115.472-84.822-66.806 0-120.963 54.157-120.963 120.963 0 66.806 54.157 120.963 120.963 120.963 54.218 0 100.104-35.67 115.472-84.822h2.76c-15.457 50.63-62.544 87.459-118.232 87.459-68.262 0-123.6-55.338-123.6-123.6z" fill="#ffa458" stroke="transparent" data-fill-palette-color="tertiary"></path></g></svg></g><defs></defs></svg><rect width="395.52" height="247.2" fill="none" stroke="none" visibility="hidden"></rect></g></svg></g></svg>